{"asset":{"version":"2.0","generator":"THREE.GLTFExporter"},"scenes":[{"nodes":[0],"name":"AuxScene"}],"scene":0,"nodes":[{"mesh":0}],"bufferViews":[{"buffer":0,"byteOffset":0,"byteLength":1332,"target":34962,"byteStride":12},{"buffer":0,"byteOffset":1332,"byteLength":1332,"target":34962,"byteStride":12}],"buffers":[{"byteLength":2664,"uri":"data:application/octet-stream;base64,"}],"accessors":[{"bufferView":0,"componentType":5126,"count":111,"max":[11.299737930297852,0.24962599575519562,14.449747085571289],"min":[-8.500263214111328,0.24962599575519562,-11.35025405883789],"type":"VEC3"},{"bufferView":1,"componentType":5126,"count":111,"max":[0,1,0],"min":[0,1,0],"type":"VEC3"}],"materials":[{"pbrMetallicRoughness":{"baseColorFactor":[0.5019607843137255,0.5019607843137255,0.5019607843137255,1],"metallicFactor":0,"roughnessFactor":1}}],"meshes":[{"primitives":[{"mode":4,"attributes":{"POSITION":0,"NORMAL":1},"material":0}]}]}